<svg width="25" height="22" viewBox="0 0 25 22" fill="none" xmlns="http://www.w3.org/2000/svg">
<path d="M23.0769 0H1.92308C1.41305 0 0.923903 0.202609 0.563256 0.563256C0.202609 0.923903 0 1.41305 0 1.92308V19.2308C0 19.7408 0.202609 20.2299 0.563256 20.5906C0.923903 20.9512 1.41305 21.1538 1.92308 21.1538H23.0769C23.587 21.1538 24.0761 20.9512 24.4367 20.5906C24.7974 20.2299 25 19.7408 25 19.2308V1.92308C25 1.41305 24.7974 0.923903 24.4367 0.563256C24.0761 0.202609 23.587 0 23.0769 0ZM23.0769 19.2308H1.92308V1.92308H23.0769V19.2308ZM19.2308 6.73077C19.2308 6.98579 19.1295 7.23036 18.9491 7.41068C18.7688 7.591 18.5242 7.69231 18.2692 7.69231H6.73077C6.47575 7.69231 6.23118 7.591 6.05086 7.41068C5.87054 7.23036 5.76923 6.98579 5.76923 6.73077C5.76923 6.47575 5.87054 6.23118 6.05086 6.05086C6.23118 5.87054 6.47575 5.76923 6.73077 5.76923H18.2692C18.5242 5.76923 18.7688 5.87054 18.9491 6.05086C19.1295 6.23118 19.2308 6.47575 19.2308 6.73077ZM19.2308 10.5769C19.2308 10.8319 19.1295 11.0765 18.9491 11.2568C18.7688 11.4372 18.5242 11.5385 18.2692 11.5385H6.73077C6.47575 11.5385 6.23118 11.4372 6.05086 11.2568C5.87054 11.0765 5.76923 10.8319 5.76923 10.5769C5.76923 10.3219 5.87054 10.0773 6.05086 9.89701C6.23118 9.71669 6.47575 9.61538 6.73077 9.61538H18.2692C18.5242 9.61538 18.7688 9.71669 18.9491 9.89701C19.1295 10.0773 19.2308 10.3219 19.2308 10.5769ZM19.2308 14.4231C19.2308 14.6781 19.1295 14.9227 18.9491 15.103C18.7688 15.2833 18.5242 15.3846 18.2692 15.3846H6.73077C6.47575 15.3846 6.23118 15.2833 6.05086 15.103C5.87054 14.9227 5.76923 14.6781 5.76923 14.4231C5.76923 14.1681 5.87054 13.9235 6.05086 13.7432C6.23118 13.5628 6.47575 13.4615 6.73077 13.4615H18.2692C18.5242 13.4615 18.7688 13.5628 18.9491 13.7432C19.1295 13.9235 19.2308 14.1681 19.2308 14.4231Z" fill="#E16745"/>
</svg>
