<svg width="25" height="28" viewBox="0 0 25 28" fill="none" xmlns="http://www.w3.org/2000/svg">
<path d="M12.5 22.5C12.7472 22.5 12.9889 22.4267 13.1945 22.2893C13.4 22.152 13.5602 21.9568 13.6548 21.7284C13.7495 21.4999 13.7742 21.2486 13.726 21.0061C13.6777 20.7637 13.5587 20.5409 13.3839 20.3661C13.2091 20.1913 12.9863 20.0722 12.7439 20.024C12.5014 19.9758 12.2501 20.0005 12.0216 20.0951C11.7932 20.1898 11.598 20.35 11.4607 20.5555C11.3233 20.7611 11.25 21.0028 11.25 21.25C11.25 21.5815 11.3817 21.8995 11.6161 22.1339C11.8505 22.3683 12.1685 22.5 12.5 22.5ZM18.75 22.5C18.9972 22.5 19.2389 22.4267 19.4445 22.2893C19.65 22.152 19.8102 21.9568 19.9048 21.7284C19.9995 21.4999 20.0242 21.2486 19.976 21.0061C19.9277 20.7637 19.8087 20.5409 19.6339 20.3661C19.4591 20.1913 19.2363 20.0722 18.9939 20.024C18.7514 19.9758 18.5001 20.0005 18.2716 20.0951C18.0432 20.1898 17.848 20.35 17.7107 20.5555C17.5733 20.7611 17.5 21.0028 17.5 21.25C17.5 21.5815 17.6317 21.8995 17.8661 22.1339C18.1005 22.3683 18.4185 22.5 18.75 22.5ZM18.75 17.5C18.9972 17.5 19.2389 17.4267 19.4445 17.2893C19.65 17.152 19.8102 16.9568 19.9048 16.7284C19.9995 16.4999 20.0242 16.2486 19.976 16.0061C19.9277 15.7637 19.8087 15.5409 19.6339 15.3661C19.4591 15.1913 19.2363 15.0722 18.9939 15.024C18.7514 14.9758 18.5001 15.0005 18.2716 15.0951C18.0432 15.1898 17.848 15.35 17.7107 15.5555C17.5733 15.7611 17.5 16.0028 17.5 16.25C17.5 16.5815 17.6317 16.8995 17.8661 17.1339C18.1005 17.3683 18.4185 17.5 18.75 17.5ZM12.5 17.5C12.7472 17.5 12.9889 17.4267 13.1945 17.2893C13.4 17.152 13.5602 16.9568 13.6548 16.7284C13.7495 16.4999 13.7742 16.2486 13.726 16.0061C13.6777 15.7637 13.5587 15.5409 13.3839 15.3661C13.2091 15.1913 12.9863 15.0722 12.7439 15.024C12.5014 14.9758 12.2501 15.0005 12.0216 15.0951C11.7932 15.1898 11.598 15.35 11.4607 15.5555C11.3233 15.7611 11.25 16.0028 11.25 16.25C11.25 16.5815 11.3817 16.8995 11.6161 17.1339C11.8505 17.3683 12.1685 17.5 12.5 17.5ZM21.25 2.5H20V1.25C20 0.918479 19.8683 0.600537 19.6339 0.366116C19.3995 0.131696 19.0815 0 18.75 0C18.4185 0 18.1005 0.131696 17.8661 0.366116C17.6317 0.600537 17.5 0.918479 17.5 1.25V2.5H7.5V1.25C7.5 0.918479 7.3683 0.600537 7.13388 0.366116C6.89946 0.131696 6.58152 0 6.25 0C5.91848 0 5.60054 0.131696 5.36612 0.366116C5.1317 0.600537 5 0.918479 5 1.25V2.5H3.75C2.75544 2.5 1.80161 2.89509 1.09835 3.59835C0.395088 4.30161 0 5.25544 0 6.25V23.75C0 24.7446 0.395088 25.6984 1.09835 26.4016C1.80161 27.1049 2.75544 27.5 3.75 27.5H21.25C22.2446 27.5 23.1984 27.1049 23.9017 26.4016C24.6049 25.6984 25 24.7446 25 23.75V6.25C25 5.25544 24.6049 4.30161 23.9017 3.59835C23.1984 2.89509 22.2446 2.5 21.25 2.5ZM22.5 23.75C22.5 24.0815 22.3683 24.3995 22.1339 24.6339C21.8995 24.8683 21.5815 25 21.25 25H3.75C3.41848 25 3.10054 24.8683 2.86612 24.6339C2.6317 24.3995 2.5 24.0815 2.5 23.75V12.5H22.5V23.75ZM22.5 10H2.5V6.25C2.5 5.91848 2.6317 5.60054 2.86612 5.36612C3.10054 5.1317 3.41848 5 3.75 5H5V6.25C5 6.58152 5.1317 6.89946 5.36612 7.13388C5.60054 7.3683 5.91848 7.5 6.25 7.5C6.58152 7.5 6.89946 7.3683 7.13388 7.13388C7.3683 6.89946 7.5 6.58152 7.5 6.25V5H17.5V6.25C17.5 6.58152 17.6317 6.89946 17.8661 7.13388C18.1005 7.3683 18.4185 7.5 18.75 7.5C19.0815 7.5 19.3995 7.3683 19.6339 7.13388C19.8683 6.89946 20 6.58152 20 6.25V5H21.25C21.5815 5 21.8995 5.1317 22.1339 5.36612C22.3683 5.60054 22.5 5.91848 22.5 6.25V10ZM6.25 17.5C6.49723 17.5 6.7389 17.4267 6.94446 17.2893C7.15002 17.152 7.31024 16.9568 7.40485 16.7284C7.49946 16.4999 7.52421 16.2486 7.47598 16.0061C7.42775 15.7637 7.3087 15.5409 7.13388 15.3661C6.95907 15.1913 6.73634 15.0722 6.49386 15.024C6.25139 14.9758 6.00005 15.0005 5.77165 15.0951C5.54324 15.1898 5.34801 15.35 5.21066 15.5555C5.07331 15.7611 5 16.0028 5 16.25C5 16.5815 5.1317 16.8995 5.36612 17.1339C5.60054 17.3683 5.91848 17.5 6.25 17.5ZM6.25 22.5C6.49723 22.5 6.7389 22.4267 6.94446 22.2893C7.15002 22.152 7.31024 21.9568 7.40485 21.7284C7.49946 21.4999 7.52421 21.2486 7.47598 21.0061C7.42775 20.7637 7.3087 20.5409 7.13388 20.3661C6.95907 20.1913 6.73634 20.0722 6.49386 20.024C6.25139 19.9758 6.00005 20.0005 5.77165 20.0951C5.54324 20.1898 5.34801 20.35 5.21066 20.5555C5.07331 20.7611 5 21.0028 5 21.25C5 21.5815 5.1317 21.8995 5.36612 22.1339C5.60054 22.3683 5.91848 22.5 6.25 22.5Z" fill="#C37D16"/>
</svg>
