<svg width="25" height="20" viewBox="0 0 25 20" fill="none" xmlns="http://www.w3.org/2000/svg">
<path d="M8.33333 5.83333C8.33333 6.52778 8.09028 7.11806 7.60417 7.60417C7.11806 8.09028 6.52778 8.33333 5.83333 8.33333C5.13889 8.33333 4.54861 8.09028 4.0625 7.60417C3.57639 7.11806 3.33333 6.52778 3.33333 5.83333C3.33333 5.13889 3.57639 4.54861 4.0625 4.0625C4.54861 3.57639 5.13889 3.33333 5.83333 3.33333C6.52778 3.33333 7.11806 3.57639 7.60417 4.0625C8.09028 4.54861 8.33333 5.13889 8.33333 5.83333ZM21.6667 10.8333V16.6667H3.33333V14.1667L7.5 10L9.58333 12.0833L16.25 5.41667L21.6667 10.8333ZM22.9167 1.66667H2.08333C1.97049 1.66667 1.87283 1.7079 1.79036 1.79036C1.7079 1.87283 1.66667 1.97049 1.66667 2.08333V17.9167C1.66667 18.0295 1.7079 18.1272 1.79036 18.2096C1.87283 18.2921 1.97049 18.3333 2.08333 18.3333H22.9167C23.0295 18.3333 23.1272 18.2921 23.2096 18.2096C23.2921 18.1272 23.3333 18.0295 23.3333 17.9167V2.08333C23.3333 1.97049 23.2921 1.87283 23.2096 1.79036C23.1272 1.7079 23.0295 1.66667 22.9167 1.66667ZM25 2.08333V17.9167C25 18.4896 24.796 18.98 24.388 19.388C23.98 19.796 23.4896 20 22.9167 20H2.08333C1.51042 20 1.01997 19.796 0.611979 19.388C0.203993 18.98 0 18.4896 0 17.9167V2.08333C0 1.51042 0.203993 1.01997 0.611979 0.611979C1.01997 0.203993 1.51042 0 2.08333 0H22.9167C23.4896 0 23.98 0.203993 24.388 0.611979C24.796 1.01997 25 1.51042 25 2.08333Z" fill="#378FE9"/>
</svg>
