<svg width="25" height="20" viewBox="0 0 25 20" fill="none" xmlns="http://www.w3.org/2000/svg">
<path d="M12.8056 0C13.4732 0.00375019 15.1433 0.0200009 16.9183 0.0912545L17.5484 0.118756C19.3347 0.20251 21.1198 0.347517 22.0061 0.59378C23.1874 0.926296 24.115 1.89385 24.4287 3.12141C24.9287 5.0715 24.9912 8.87419 24.9987 9.79549L25 9.9855V10.203C24.9912 11.1243 24.9287 14.9282 24.4287 16.8771C24.1112 18.1084 23.1824 19.0772 22.0061 19.4047C21.1198 19.651 19.3347 19.796 17.5484 19.8797L16.9183 19.9085C15.1433 19.9785 13.4732 19.996 12.8056 19.9985L12.5119 19.9998H12.1931C10.7805 19.991 4.87274 19.9272 2.99265 19.4047C1.81259 19.0722 0.883794 18.1047 0.570029 16.8771C0.0700036 14.927 0.00750037 11.1243 0 10.203V9.79549C0.00750037 8.87419 0.0700036 5.07025 0.570029 3.12141C0.887544 1.89009 1.81634 0.921296 2.9939 0.59503C4.87274 0.0712534 10.7818 0.00750038 12.1944 0H12.8056ZM9.99925 5.62528V14.3757L17.4996 10.0005L9.99925 5.62528Z" fill="#5F9B41"/>
</svg>
